# xmcd
#
# Track frame offsets: 
#        150
#        17024
#        50033
#        71540
#        83739
#        97208
#        118438
#        131185
#        147853
#        166833
#        193952
#        209137
#        228813
#
# Disc length: 3491 seconds
#
# Revision: 2
# Processed by: cddbd v1.5.2PL0 Copyright (c) Steve Scherf et al.
# Submitted via: ExactAudioCopyFreeDBPlugin 1.0
#
DISCID=c80da10d
DTITLE=Matt Andersen - Second Time Around
DYEAR=2007
DGENRE=Blues
TTITLE0=Leavin' Blues
TTITLE1=I Play The Fool For You
TTITLE2=When My Angel Gets The Blues
TTITLE3=If  I Can't Have You
TTITLE4=One Size Never Fits
TTITLE5=Ain't No Sunshine
TTITLE6=Just Don't Call  Me Your Friend
TTITLE7=Lay Down With Me
TTITLE8=Tell Me
TTITLE9=Have You Got The Blues
TTITLE10=Rollin' Home
TTITLE11=My Old Friend The Blues
TTITLE12=Jam (Untitled Hidden Track)
EXTD=
EXTT0=
EXTT1=
EXTT2=
EXTT3=
EXTT4=
EXTT5=
EXTT6=
EXTT7=
EXTT8=
EXTT9=
EXTT10=
EXTT11=
EXTT12=
PLAYORDER=
